<?xml version="1.0" encoding="UTF-8"?>
<svg version="1.1" xmlns="http://www.w3.org/2000/svg" width="698" height="698">
<path d="M0 0 C1.03237793 0.16097168 2.06475586 0.32194336 3.12841797 0.48779297 C29.79219413 4.74957571 55.47648601 12.73279554 80 24 C80.8677002 24.39799805 81.73540039 24.79599609 82.62939453 25.20605469 C100.97540104 33.74444765 118.23200294 44.3469982 134.2734375 56.67480469 C135.99574327 57.99673281 137.73138509 59.29951706 139.46875 60.6015625 C148.91472419 67.76477067 157.4851089 75.76558843 166 84 C166.5057959 84.48388184 167.0115918 84.96776367 167.53271484 85.46630859 C173.90891338 91.5728054 179.53128849 98.07723309 185 105 C185.86093953 106.05943944 186.72295564 107.11800475 187.5859375 108.17578125 C222.68446784 151.53951082 244.64270566 204.66126644 251 260 C251.09498779 260.80872559 251.18997559 261.61745117 251.2878418 262.45068359 C256.47843455 311.99767632 246.76876488 362.57818065 227 408 C226.52506104 409.10674072 226.52506104 409.10674072 226.04052734 410.23583984 C217.95577981 428.91680429 207.417344 446.87272898 195 463 C194.33871094 463.85980469 193.67742188 464.71960938 192.99609375 465.60546875 C191.03203402 468.10121333 189.02873654 470.55654936 187 473 C186.58637207 473.49854492 186.17274414 473.99708984 185.74658203 474.51074219 C168.70824074 494.99161279 168.70824074 494.99161279 160.08203125 502.22265625 C158.60674271 503.4820489 157.16967604 504.7868515 155.76171875 506.12109375 C115.14400792 544.59105626 59.55590821 569.15869083 5 579 C3.8749707 579.21027832 2.74994141 579.42055664 1.59082031 579.63720703 C-27.98154815 585.00820234 -59.37881788 585.13387076 -89 580 C-90.01481445 579.82839355 -91.02962891 579.65678711 -92.07519531 579.47998047 C-121.93542511 574.30278847 -152.41166584 565.50712255 -179.13867188 550.99755859 C-181.11289699 549.93949408 -183.10730568 548.93008727 -185.109375 547.92578125 C-200.85831482 539.94810491 -215.23848023 530.0238169 -229 519 C-229.93070312 518.26265625 -230.86140625 517.5253125 -231.8203125 516.765625 C-245.55892064 505.72776889 -258.78100719 493.60565614 -269.76171875 479.796875 C-272.07089132 476.91141678 -274.46843334 474.11700288 -276.875 471.3125 C-282.77782163 464.22364002 -287.94932115 456.712499 -293 449 C-293.44456543 448.32791504 -293.88913086 447.65583008 -294.34716797 446.96337891 C-321.54954045 405.48895422 -338.98836658 353.54739978 -339.203125 303.74609375 C-339.20882507 302.68753677 -339.21452515 301.6289798 -339.22039795 300.53834534 C-339.22979733 298.3020221 -339.23636165 296.06568534 -339.24023438 293.8293457 C-339.2498241 290.49859506 -339.28084826 287.16849391 -339.3125 283.83789062 C-339.41312533 263.77628392 -337.82578888 243.91555056 -332.8125 224.4375 C-332.50989258 223.2319043 -332.20728516 222.02630859 -331.89550781 220.78417969 C-320.34107381 175.85552588 -298.79487812 132.31609905 -266.98828125 98.13671875 C-265.22160891 96.23815339 -263.54509377 94.2954721 -261.875 92.3125 C-253.35646654 82.56571287 -244.01556279 73.22339489 -233.74023438 65.34228516 C-231.6089869 63.69840208 -229.5016621 62.0252228 -227.390625 60.35546875 C-215.43876078 50.9878526 -203.14454811 42.60272366 -190 35 C-189.2898877 34.5870166 -188.57977539 34.1740332 -187.84814453 33.74853516 C-132.04113392 1.70745168 -63.41438819 -10.31469696 0 0 Z M-207 93 C-207.97710937 93.79277344 -208.95421875 94.58554688 -209.9609375 95.40234375 C-222.56781058 105.73305643 -233.94946863 117.16353187 -244 130 C-244.92665764 131.11710361 -245.85654246 132.23153543 -246.7890625 133.34375 C-277.55747816 170.32419662 -295.4749843 216.47992828 -301 264 C-301.1023999 264.87841553 -301.2047998 265.75683105 -301.31030273 266.66186523 C-303.81347971 290.76907807 -306.94183101 335.08725348 -293 356 C-292.18208984 355.00033203 -292.18208984 355.00033203 -291.34765625 353.98046875 C-290.59355469 353.05878906 -289.83945312 352.13710938 -289.0625 351.1875 C-288.24007812 350.18203125 -287.41765625 349.1765625 -286.5703125 348.140625 C-284.94158208 346.14981812 -283.31117741 344.16042499 -281.6796875 342.171875 C-276.74155529 336.14976255 -271.8532185 330.09069253 -267 324 C-262.99257266 318.97075852 -258.9702031 313.95814793 -254.875 309 C-249.00490592 301.84455774 -243.37091443 294.50563495 -237.70166016 287.19091797 C-235.2502886 284.03473312 -232.7836736 280.89069236 -230.3125 277.75 C-229.8705127 277.18821045 -229.42852539 276.6264209 -228.97314453 276.04760742 C-228.09110529 274.92682438 -227.20894485 273.8061367 -226.32666016 272.68554688 C-224.50968459 270.37704498 -222.69474308 268.06694861 -220.88012695 265.7565918 C-219.96639027 264.59361011 -219.05217168 263.43100687 -218.13745117 262.26879883 C-215.76096104 259.24831263 -213.39355132 256.22127032 -211.0390625 253.18359375 C-210.30719727 252.24290039 -210.30719727 252.24290039 -209.56054688 251.28320312 C-208.63457277 250.09266499 -207.71119594 248.9001 -206.79101562 247.70507812 C-199.46516529 238.30524277 -199.46516529 238.30524277 -195 237.375 C-188.74600162 238.67791633 -184.68626802 245.68254017 -180.8125 250.5 C-180.24442627 251.2019751 -179.67635254 251.9039502 -179.09106445 252.62719727 C-175.55518477 257.01367313 -172.09566076 261.45137802 -168.6875 265.9375 C-164.68992146 271.18473075 -160.47866295 276.15854033 -156 281 C-151.11720238 277.24512136 -147.58704315 273.19004879 -143.9375 268.25 C-142.7944567 266.72902696 -141.651222 265.20819776 -140.5078125 263.6875 C-139.92805664 262.91148437 -139.34830078 262.13546875 -138.75097656 261.3359375 C-135.96539526 257.61975764 -133.13809973 253.93578378 -130.3125 250.25 C-129.22908286 248.83339742 -128.14574796 247.41673194 -127.0625 246 C-121.96398635 239.33760311 -116.8458384 232.69031532 -111.72265625 226.046875 C-106.52241361 219.29780801 -101.34944762 212.52840738 -96.1875 205.75 C-95.49849609 204.84531982 -94.80949219 203.94063965 -94.09960938 203.00854492 C-93.41318359 202.10724854 -92.72675781 201.20595215 -92.01953125 200.27734375 C-83.38871239 188.94516671 -74.73714917 177.63281281 -65.96850586 166.40673828 C-61.87833389 161.16056032 -57.88278727 155.85697342 -53.96484375 150.48046875 C-51.23249433 147.03108132 -48.60261761 143.73966967 -44.5625 141.875 C-40.72474992 142.06220732 -38.63179461 144.41669742 -36 147 C-33.95092777 149.40778934 -32.09757052 151.93569157 -30.25 154.5 C-29.19210091 155.93931292 -28.13349784 157.37810866 -27.07421875 158.81640625 C-26.5539209 159.52684082 -26.03362305 160.23727539 -25.49755859 160.96923828 C-23.39237403 163.82397013 -21.23185541 166.63113974 -19.0625 169.4375 C-14.63040537 175.17859208 -10.22173136 180.93716432 -5.81884766 186.70068359 C-2.53590726 190.99643574 0.75862031 195.28283562 4.0625 199.5625 C7.66677149 204.24050776 11.21784722 208.95488831 14.75 213.6875 C19.05355478 219.45336032 23.43824198 225.14861919 27.875 230.8125 C32.72245051 237.00100495 37.43259206 243.27232064 42.0625 249.625 C48.41584297 258.33060638 55.10657756 266.71783667 62 275 C62.73259033 275.88051025 62.73259033 275.88051025 63.47998047 276.77880859 C64.6524108 278.18663034 65.82606534 279.59343242 67 281 C72.65409387 278.46208287 75.49523352 273.68696098 79 268.8125 C80.32685949 267.00462317 81.6563312 265.1986609 82.98828125 263.39453125 C83.98915771 262.03835693 83.98915771 262.03835693 85.01025391 260.65478516 C87.97819929 256.6948541 91.06144494 252.83574184 94.1875 249 C94.71537109 248.34878174 95.24324219 247.69756348 95.78710938 247.02661133 C97.17279727 245.33426585 98.58215478 243.66538838 100 242 C100.98419922 240.7934375 100.98419922 240.7934375 101.98828125 239.5625 C104 238 104 238 107.01953125 237.5234375 C110.60750307 238.09713679 111.43139598 238.83655684 113.6875 241.625 C114.36167969 242.44355469 115.03585937 243.26210938 115.73046875 244.10546875 C116.47941406 245.06066406 117.22835938 246.01585937 118 247 C118.8915621 248.12138403 119.78350743 249.24246344 120.67578125 250.36328125 C122.57706324 252.76298327 124.46493972 255.17251269 126.34375 257.58984375 C128.53819116 260.41316063 130.75942647 263.21305711 133 266 C135.62671195 269.2714019 138.22713422 272.56159627 140.81176758 275.86621094 C145.25294508 281.5439825 149.74990322 287.16928604 154.3125 292.75 C158.94161582 298.41385125 163.46752244 304.14735747 167.9375 309.9375 C174.27824446 318.14384576 180.82863334 326.16010503 187.45605469 334.13574219 C189.63321556 336.76458476 191.78480391 339.41358922 193.9375 342.0625 C197.52940483 346.46157445 201.22179409 350.76014835 205 355 C223.83738787 323.68807527 215.58378624 265.35690725 207.5703125 231.921875 C196.63507348 189.24706871 176.08008712 151.13592042 146 119 C144.76456733 117.58879439 143.53489115 116.17251714 142.3125 114.75 C136.66980248 108.29559194 130.63019932 102.75204775 123.94140625 97.3828125 C121.98894799 95.80113981 120.05866854 94.19166873 118.15234375 92.5546875 C110.50514719 85.98818493 102.49752044 80.39787931 94 75 C93.43007324 74.63052246 92.86014648 74.26104492 92.27294922 73.88037109 C11.69109658 21.81893047 -97.94836135 19.45979976 -207 93 Z M-45 202 C-45.65484375 202.83660156 -46.3096875 203.67320312 -46.984375 204.53515625 C-47.90610536 205.71105089 -48.82799373 206.88682169 -49.75 208.0625 C-50.24588623 208.69518799 -50.74177246 209.32787598 -51.25268555 209.97973633 C-53.78475636 213.20392503 -56.32832318 216.41703853 -58.91015625 219.6015625 C-65.03538665 227.16229668 -70.89998806 234.86962206 -76.63891602 242.7277832 C-82.41520052 250.61724564 -88.41758794 258.32043584 -94.44824219 266.01611328 C-98.3338222 270.98373807 -102.16735489 275.99148722 -106 281 C-106.91749023 282.19810303 -106.91749023 282.19810303 -107.85351562 283.42041016 C-111.98499749 288.81847047 -116.10254241 294.22677805 -120.20751953 299.64501953 C-121.73931614 301.65751069 -123.28515222 303.65754787 -124.83984375 305.65234375 C-125.57332031 306.61269531 -126.30679688 307.57304687 -127.0625 308.5625 C-127.67222656 309.34753906 -128.28195312 310.13257813 -128.91015625 310.94140625 C-130.20496794 312.90032128 -130.20496794 312.90032128 -129.72998047 314.9140625 C-128.92786925 317.20611544 -127.96767612 318.57854934 -126.41015625 320.43359375 C-125.87825684 321.07570801 -125.34635742 321.71782227 -124.79833984 322.37939453 C-124.2255127 323.05856934 -123.65268555 323.73774414 -123.0625 324.4375 C-121.86713295 325.88038759 -120.67313705 327.32441213 -119.48046875 328.76953125 C-118.59174072 329.84388428 -118.59174072 329.84388428 -117.68505859 330.93994141 C-114.5131496 334.81774032 -111.49643209 338.81081352 -108.45703125 342.79296875 C-104.49080767 347.98595822 -100.43119905 353.10620961 -96.38671875 358.23828125 C-95.01582318 359.97989788 -93.64800009 361.72387885 -92.28125 363.46875 C-87.53360434 369.52750384 -82.75715899 375.56083485 -77.9375 381.5625 C-73.72758111 386.8061134 -69.59033193 392.09856264 -65.50537109 397.43994141 C-62.43170226 401.45440295 -59.29263894 405.41034562 -56.12109375 409.34765625 C-54.07244022 411.90941638 -52.0496438 414.48956518 -50.03100586 417.07495117 C-45.16311868 423.30709776 -40.19371154 429.43277691 -35.09375 435.4765625 C-33.32502847 437.60826792 -31.63618724 439.76597512 -30 442 C-25.89256605 441.29837233 -24.53049671 439.48059427 -22.09375 436.13867188 C-21.6090625 435.45353516 -21.124375 434.76839844 -20.625 434.0625 C-19.55638336 432.59381668 -18.48600188 431.12641619 -17.4140625 429.66015625 C-16.8562207 428.8933252 -16.29837891 428.12649414 -15.72363281 427.33642578 C-12.89199224 423.49806881 -9.94455503 419.75198559 -7 416 C-1.88781529 409.46336316 3.14113556 402.87125924 8.09375 396.21289062 C9.39044536 394.47114304 10.69455111 392.73518969 12 391 C12.70898438 390.04738281 13.41796875 389.09476563 14.1484375 388.11328125 C16 386 16 386 19 385 C24.41308621 388.67724422 27.82118792 393.51944509 31.5625 398.8125 C37.63138807 407.23081845 44.01890312 415.30454964 50.61816406 423.30957031 C53.48458533 426.81612523 56.25087666 430.40114763 59 434 C63.18284788 430.70314439 66.41496021 427.48409964 69.625 423.1875 C70.04467041 422.63054443 70.46434082 422.07358887 70.89672852 421.49975586 C72.27168014 419.6717724 73.63624723 417.83634975 75 416 C75.97471309 414.69490355 76.94998429 413.39022376 77.92578125 412.0859375 C78.42053955 411.4244873 78.91529785 410.76303711 79.42504883 410.08154297 C81.4405366 407.39097253 83.46149125 404.70454447 85.484375 402.01953125 C86.50198689 400.66358964 87.51495454 399.30415117 88.5234375 397.94140625 C89.98243309 395.97214018 91.45797409 394.01636612 92.9375 392.0625 C93.37376709 391.4651001 93.81003418 390.8677002 94.25952148 390.25219727 C96.23606398 387.67275792 97.5676704 386.14873147 100.6796875 385.078125 C103.47293749 384.98407618 104.7385598 385.36240537 107 387 C107.67659651 388.32832202 108.34198105 389.66237775 109 391 C109.87648969 392.25150601 110.78628833 393.48014065 111.72265625 394.6875 C112.25648926 395.37996826 112.79032227 396.07243652 113.34033203 396.78588867 C113.90864746 397.51654541 114.47696289 398.24720215 115.0625 399 C116.24917384 400.53739318 117.43537018 402.07515505 118.62109375 403.61328125 C119.20101074 404.36432129 119.78092773 405.11536133 120.37841797 405.88916016 C122.48815402 408.63543807 124.55855906 411.40849321 126.625 414.1875 C135.46736679 426.00953502 144.76100622 437.48753654 154 449 C158.41131053 448.17237286 160.07144357 445.87057118 162.625 442.375 C163.0573999 441.79524414 163.4897998 441.21548828 163.93530273 440.61816406 C165.30823523 438.75778963 166.65799268 436.88278728 168 435 C168.42651855 434.4028418 168.85303711 433.80568359 169.29248047 433.19042969 C174.33830263 426.04883026 178.89647555 418.68879659 183.0625 411 C183.4447876 410.30616211 183.8270752 409.61232422 184.22094727 408.89746094 C186.46163546 404.6391767 188.13845051 400.91222393 188 396 C186.51103903 393.17332778 184.50405232 390.92874038 182.375 388.5625 C181.16871538 387.15412139 179.96300249 385.74525293 178.7578125 384.3359375 C177.82243652 383.26230957 177.82243652 383.26230957 176.86816406 382.16699219 C173.91361138 378.73983463 171.08694392 375.21203432 168.25 371.6875 C167.16877225 370.35481646 166.08676066 369.02276841 165.00390625 367.69140625 C164.49359863 367.06379395 163.98329102 366.43618164 163.45751953 365.78955078 C161.3730076 363.23017516 159.28045732 360.67747453 157.1875 358.125 C153.85498429 354.05728191 150.5629301 349.95953557 147.28515625 345.84765625 C144.99201648 342.99005131 142.68053865 340.14818906 140.36547852 337.30834961 C135.16772776 330.93235127 130.03089995 324.51697113 124.97143555 318.03076172 C121.11582569 313.10608028 117.12707623 308.30319099 113.09375 303.5234375 C111.32502847 301.39173208 109.63618724 299.23402488 108 297 C103.9543408 298.34855307 102.35051799 301.08960885 99.875 304.375 C98.87977872 305.66864042 97.88367554 306.96160284 96.88671875 308.25390625 C96.39478027 308.89473145 95.9028418 309.53555664 95.39599609 310.19580078 C92.03123334 314.54445359 88.49862027 318.75908276 85 323 C83.90468337 324.33441831 82.80965235 325.6690711 81.71484375 327.00390625 C75.63391767 334.41106291 69.53530325 341.7983567 63.28759766 349.06591797 C60.890221 351.8583238 60.890221 351.8583238 59 355 C56.03 355 53.06 355 50 355 C49.34 353.68 48.68 352.36 48 351 C46.59985783 349.17898995 45.15804073 347.38964888 43.6875 345.625 C42.88828125 344.66207031 42.0890625 343.69914063 41.265625 342.70703125 C40.51796875 341.81371094 39.7703125 340.92039062 39 340 C38.43796875 339.32324219 37.8759375 338.64648438 37.296875 337.94921875 C36.20123813 336.63004678 35.10129656 335.31445073 34 334 C35.41680244 329.67953102 37.53763785 326.99538801 40.625 323.6875 C41.85089844 322.36298828 41.85089844 322.36298828 43.1015625 321.01171875 C43.72804688 320.34785156 44.35453125 319.68398438 45 319 C43.51480183 314.47689648 40.96806609 311.1409364 38 307.5 C36.99547365 306.24528787 35.99158005 304.99006892 34.98828125 303.734375 C34.48377441 303.10595703 33.97926758 302.47753906 33.45947266 301.83007812 C31.33286268 299.16345578 29.26029963 296.45873319 27.1875 293.75 C23.78837451 289.31274838 20.36290962 284.89699673 16.9230957 280.49121094 C11.88692823 274.03889916 6.8915447 267.56276783 2 261 C-3.95490777 253.01347619 -10.066209 245.15362239 -16.20019531 237.30419922 C-18.62372729 234.20147339 -21.0425678 231.09511332 -23.46020508 227.98779297 C-24.64165534 226.46936105 -25.82377086 224.95144648 -27.0065918 223.43408203 C-29.69017668 219.98806736 -32.36126016 216.53425487 -34.99609375 213.05078125 C-35.4540332 212.4472583 -35.91197266 211.84373535 -36.38378906 211.22192383 C-37.59694496 209.61960387 -38.80455853 208.01309183 -40.01171875 206.40625 C-41.94991249 203.82533376 -41.94991249 203.82533376 -45 202 Z M-196 297 C-197.83157519 299.01534528 -199.61227207 301.05046557 -201.375 303.125 C-201.91519775 303.75809082 -202.45539551 304.39118164 -203.01196289 305.04345703 C-207.05192072 309.80974582 -210.94909191 314.67303751 -214.78271484 319.60595703 C-218.29426059 324.12151692 -221.88145255 328.56983065 -225.5 333 C-229.53226615 337.93928967 -233.5181114 342.90819604 -237.4375 347.9375 C-241.53937963 353.19755741 -245.74579071 358.36249418 -250 363.5 C-255.27242026 369.86734556 -260.43689152 376.30555015 -265.515625 382.828125 C-268.46075412 386.60686765 -271.49353668 390.31358025 -274.5390625 394.01171875 C-276.18203534 396.03460537 -276.18203534 396.03460537 -277 399 C-275.05611046 406.29126156 -270.99185042 412.80158939 -267 419.125 C-266.43474609 420.02790771 -265.86949219 420.93081543 -265.28710938 421.86108398 C-261.55554757 427.74327478 -257.65623782 433.47230765 -253.5 439.0625 C-253.02046875 439.71041504 -252.5409375 440.35833008 -252.046875 441.02587891 C-249.34786071 444.56170135 -246.6320427 447.36150521 -243 450 C-229.58360202 433.53245344 -216.28441936 416.97872569 -203.26953125 400.19140625 C-202.31602783 398.96224487 -202.31602783 398.96224487 -201.34326172 397.70825195 C-200.09223849 396.09455058 -198.84252042 394.47983636 -197.59423828 392.86401367 C-196.74128174 391.76343628 -196.74128174 391.76343628 -195.87109375 390.640625 C-195.36505615 389.98610352 -194.85901855 389.33158203 -194.33764648 388.65722656 C-193 387 -193 387 -191 385 C-188.25451855 384.94250301 -186.61027453 385.46287691 -184.53759766 387.28710938 C-182.8931994 389.05791844 -181.34632728 390.88258248 -179.8125 392.75 C-179.24515137 393.42232666 -178.67780273 394.09465332 -178.09326172 394.78735352 C-173.64404023 400.10229175 -169.41207579 405.57225263 -165.234375 411.1015625 C-162.31828137 414.88432731 -159.21820406 418.4727631 -156 422 C-152.82236522 420.63718095 -151.1286299 419.24470324 -149.08203125 416.47265625 C-148.55416016 415.76794189 -148.02628906 415.06322754 -147.48242188 414.3371582 C-146.93134766 413.586521 -146.38027344 412.83588379 -145.8125 412.0625 C-144.65377799 410.51455036 -143.49361785 408.9676762 -142.33203125 407.421875 C-141.76564941 406.66583984 -141.19926758 405.90980469 -140.61572266 405.13085938 C-138.471892 402.30351667 -136.25289589 399.55383886 -134 396.8125 C-133.30132812 395.96042969 -132.60265625 395.10835938 -131.8828125 394.23046875 C-130.72007645 392.85303663 -129.53179336 391.49619239 -128.3046875 390.17578125 C-125.63046419 387.38156857 -125.63046419 387.38156857 -125.078125 383.70703125 C-126.28631138 380.1592636 -128.40551592 377.79414095 -130.875 375.0625 C-131.88240621 373.91207719 -132.88754573 372.75966626 -133.890625 371.60546875 C-134.40689453 371.0129834 -134.92316406 370.42049805 -135.45507812 369.81005859 C-137.93645897 366.90282762 -140.28151318 363.89369358 -142.625 360.875 C-146.53610919 355.85514895 -150.50736512 350.89499787 -154.55078125 345.98046875 C-161.0848177 338.02916123 -167.58245622 330.04567328 -174 322 C-177.56951949 317.53047346 -181.15444778 313.07359898 -184.75 308.625 C-185.58337891 307.58859375 -185.58337891 307.58859375 -186.43359375 306.53125 C-189.14017708 303.18898003 -191.81257056 299.90443337 -195 297 C-195.33 297 -195.66 297 -196 297 Z " fill="#6B6EF0" transform="translate(389,68)"/>
<path d="M0 0 C7.5667865 6.36570927 12.6406261 14.24088993 15 23.875 C15.95854059 35.13785194 14.20648218 44.33354781 7.26953125 53.51953125 C-0.65675899 62.51901359 -9.50958413 66.0896565 -21.3125 67.125 C-31.44248648 66.93093896 -40.61970955 62.8731587 -47.75 55.8125 C-55.9131168 47.09135764 -58.3751182 39.21056931 -58.10546875 27.3203125 C-57.06108434 17.01418944 -52.15586555 8.62590595 -44.8125 1.48828125 C-32.24869562 -8.71980981 -13.10756166 -9.56852001 0 0 Z " fill="#6366F0" transform="translate(502.75,208.1875)"/>
</svg>
